<?xml version="1.0" encoding="UTF-8"?>
<svg id="Symbol" xmlns="http://www.w3.org/2000/svg" version="1.1" viewBox="0 0 184.28 183.96">
  <!-- Generator: Adobe Illustrator 29.8.2, SVG Export Plug-In . SVG Version: 2.1.1 Build 3)  -->
  <defs>
    <style>
      .st0 {
        fill: #19263c;
      }
    </style>
  </defs>
  <path class="st0" d="M145.03,69.95h-26.87c-2.28,0-4.12-1.85-4.12-4.12v-26.87c0-2.28,1.85-4.12,4.12-4.12h26.87c2.28,0,4.12,1.85,4.12,4.12v26.87c0,2.28-1.85,4.12-4.12,4.12ZM74.78,75.61l-23.67,28.33c-1.26,1.51-1.95,3.42-1.95,5.38v17.87c0,1.48,1.79,2.22,2.83,1.17l23.26-23.26c1.57-1.57,2.46-3.71,2.46-5.94v-22.49c0-1.55-1.94-2.25-2.93-1.06ZM105.92,38.34l-21.08,25.22c-1.26,1.51-1.95,3.42-1.95,5.38v24.51c0,1.48,1.79,2.22,2.83,1.17l20.67-20.67c1.57-1.57,2.46-3.71,2.46-5.94v-28.62c0-1.55-1.94-2.25-2.93-1.06ZM107.31,106.28h-22.49c-2.23,0-4.36.88-5.94,2.46l-23.26,23.26c-1.04,1.04-.3,2.83,1.17,2.83h17.87c1.97,0,3.87-.69,5.38-1.95l28.33-23.67c1.19-.99.49-2.93-1.06-2.93ZM144.58,75.13h-28.62c-2.23,0-4.36.88-5.94,2.46l-20.67,20.67c-1.04,1.04-.3,2.83,1.17,2.83h24.51c1.97,0,3.87-.69,5.38-1.95l25.22-21.08c1.19-.99.49-2.93-1.06-2.93ZM46,133.81l-10.31,11.92c-.37.43-.58.98-.58,1.55v.69c0,.48.39.87.87.87h.69c.57,0,1.11-.2,1.54-.57l11.95-10.3c.51-.44.8-1.08.8-1.75v-2.19c0-.56-.46-1.02-1.02-1.02h-2.2c-.67,0-1.31.29-1.75.8Z"/>
</svg>